 http://img220.imageshack.us/img220/4186/elephantwhite2011.jpg

Country.......: USA
Genre.........: Thriller, Action
Date release..: 2011 [World]
Director......: Prachya Pinkaew
Writers.......: Kevin Bernhardt
Duration......: 91 min.
More..........: http://www.imdb.com/title/tt1578882
Trailer.......: http://www.imdb.com/video/screenplay/vi959290649
Trailer.......:

Pilot :
An assassin is hired by a businessman to avenge the murder of his daughter by white slave traders in Thailand. 

Cats :
Djimon Hounsou   	 ...  	Curtie Church
Kevin Bacon 	... 	Jimmy The Brit
Jirantanin Pitakporntrakul 	... 	Mae
Ron Smoorenburg 	... 	Bodyguard
Abhijati Meuk Jusakul 	... 	Advisor Bhun
Sahajak Boonthanakit 	... 	Rajahdon
Byron Gibson 	... 	Bodyguard
Weeraprawat Wongpuapan 	... 	Boss Katha
Creighton Mark Johnson 	... 	Lead Gunman Bodyguard
Suteerush Channukool 	... 	Number Two 

Data Technical :
!!! SAMPLE !!!
Audio.....: English
Subtitles.: None
Format                           : AVI
Format/Info                      : Audio Video Interleave
File size                        : 701 MiB
Duration                         : 1h 31mn
Overall bit rate                 : 1 072 Kbps
Writing application              : Nandub v1.0rc2
Writing library                  : Nandub build 1852/release
Video
ID                               : 0
Format                           : MPEG-4 Visual
Format profile                   : Advanced Simple@L5
Format settings, BVOP            : Yes
Format settings, QPel            : No
Format settings, GMC             : No warppoints
Format settings, Matrix          : Default (H.263)
Codec ID                         : XVID
Codec ID/Hint                    : XviD
Duration                         : 1h 31mn
Bit rate                         : 899 Kbps
Width                            : 640 pixels
Height                           : 272 pixels
Display aspect ratio             : 2.35:1
Frame rate                       : 23.976 fps
Color space                      : YUV
Chroma subsampling               : 4:2:0
Bit depth                        : 8 bits
Scan type                        : Progressive
Bits/(Pixel*Frame)               : 0.215
Stream size                      : 588 MiB (84%)
Writing library                  : XviD 63
Audio
ID                               : 1
Format                           : MPEG Audio
Format version                   : Version 1
Format profile                   : Layer 3
Mode                             : Joint stereo
Mode extension                   : MS Stereo
Codec ID                         : 55
Codec ID/Hint                    : MP3
Duration                         : 1h 31mn
Bit rate mode                    : Variable
Bit rate                         : 160 Kbps
Channel(s)                       : 2 channels
Sampling rate                    : 48.0 KHz
Stream size                      : 105 MiB (15%)
Alignment                        : Aligned on interleaves
Interleave, duration             : 24 ms (0.58 video frame)
Interleave, preload duration     : 96 ms
Writing library                  : LAME

Screen : 
http://img148.imageshack.us/img148/8471/elephantwhite2011s1.jpg 
http://img41.imageshack.us/img41/5638/elephantwhite2011s2.jpg 
http://img859.imageshack.us/img859/4147/elephantwhite2011s3.jpg 
http://img707.imageshack.us/img707/6451/elephantwhite2011s4.jpg 
http://img714.imageshack.us/img714/5933/elephantwhite2011s5.jpg